<?xml version="1.0" standalone="no"?>
<!DOCTYPE svg PUBLIC "-//W3C//DTD SVG 20010904//EN"
 "http://www.w3.org/TR/2001/REC-SVG-20010904/DTD/svg10.dtd">
<svg version="1.0" xmlns="http://www.w3.org/2000/svg"
 width="260.000000pt" height="260.000000pt" viewBox="0 0 260.000000 260.000000"
 preserveAspectRatio="xMidYMid meet">
<metadata>
Created by potrace 1.11, written by Peter Selinger 2001-2013
</metadata>
<g transform="translate(0.000000,260.000000) scale(0.100000,-0.100000)"
fill="#000000" stroke="none">
<path d="M0 2154 c0 -4 21 -25 47 -48 72 -63 123 -181 258 -596 69 -212 122
-319 219 -436 89 -107 121 -132 183 -143 26 -5 49 -14 51 -20 10 -31 266 -330
292 -341 16 -6 36 -20 46 -31 23 -26 34 -24 34 5 0 13 7 27 16 30 19 7 17 8
33 -21 11 -21 41 -32 41 -15 0 14 -40 72 -50 72 -6 0 -22 -7 -35 -16 -23 -15
-25 -14 -79 39 -31 30 -56 59 -56 65 0 6 24 1 53 -11 47 -18 71 -20 252 -18
150 1 224 -3 297 -15 90 -16 101 -16 165 -1 100 25 130 23 163 -13 15 -16 30
-44 34 -61 3 -18 9 -29 13 -26 3 4 13 1 22 -7 28 -24 58 -28 76 -9 16 16 18
16 30 0 15 -21 35 -22 35 -3 0 8 5 16 12 18 7 3 9 12 5 22 -6 15 -14 17 -46
11 -69 -11 -102 46 -66 115 17 34 66 52 194 71 73 11 81 11 122 -9 53 -26 111
-26 159 -1 38 19 80 74 80 105 0 30 -93 245 -128 296 -17 25 -74 84 -126 132
-75 69 -98 97 -110 133 -9 26 -16 54 -16 62 0 24 -49 123 -72 149 -48 51 -140
9 -158 -73 -5 -22 -7 -48 -4 -57 5 -16 7 -16 37 2 18 11 40 20 49 20 20 0 84
-53 100 -84 8 -15 2 -12 -26 12 -54 47 -91 43 -127 -15 -27 -44 -29 -124 -4
-173 l18 -35 -26 23 c-13 13 -30 43 -37 67 l-12 43 -106 11 c-117 13 -199 29
-307 60 -143 40 -314 20 -458 -56 -109 -58 -223 -174 -278 -287 -24 -48 -49
-90 -55 -93 -23 -9 -86 28 -146 84 -129 123 -196 247 -293 543 -90 275 -139
376 -226 463 -59 60 -89 80 -89 61z m1318 -942 c2 -12 10 -22 18 -22 8 0 14
-9 14 -20 0 -11 -7 -20 -15 -20 -10 0 -15 -10 -15 -30 0 -20 5 -30 15 -30 8 0
15 -9 15 -21 0 -16 -5 -20 -27 -17 l-28 3 -3 93 c-2 73 0 93 10 90 7 -3 14
-14 16 -26z m352 7 c0 -12 8 -23 20 -26 11 -3 20 -14 20 -24 0 -12 -7 -19 -20
-19 -16 0 -20 -7 -20 -30 0 -23 4 -30 20 -30 14 0 20 -7 20 -21 0 -16 -5 -20
-27 -17 l-28 3 -3 93 c-2 59 1 92 8 92 5 0 10 -9 10 -21z m-532 -1 c15 -15 16
-90 1 -105 -8 -8 -8 -17 0 -31 14 -27 14 -32 -4 -32 -8 0 -22 14 -30 31 -20
37 -49 36 -53 -4 -2 -15 -8 -27 -13 -27 -5 0 -9 41 -9 90 l0 90 48 0 c26 0 53
-5 60 -12z m279 -25 l21 -37 22 37 c37 63 50 50 50 -53 0 -73 -3 -90 -15 -90
-12 0 -15 13 -15 58 l0 57 -21 -34 -21 -34 -19 29 -19 29 0 -52 c0 -40 -4 -53
-15 -53 -12 0 -15 17 -15 90 0 102 12 115 47 53z m-149 -76 l3 -68 -48 3 -48
3 -3 43 -3 42 38 2 38 1 -37 4 c-30 3 -38 8 -38 24 0 18 6 20 48 17 l47 -3 3
-68z m356 57 c3 -9 6 -40 6 -70 l0 -55 -47 3 -48 3 -3 43 -3 42 38 2 38 1 -37
4 c-30 3 -38 9 -38 24 0 16 7 19 44 19 31 0 46 -5 50 -16z m196 12 c0 -2 3
-11 6 -20 5 -13 -2 -16 -32 -18 -37 -1 -37 -1 -7 -5 36 -5 49 -28 39 -69 -6
-22 -11 -25 -49 -22 -30 2 -43 8 -45 21 -3 14 4 17 35 18 l38 2 -35 6 c-29 5
-36 11 -38 34 -6 46 4 57 48 57 22 0 40 -2 40 -4z m600 -105 c14 -26 13 -74
-2 -89 -30 -30 -68 -1 -68 52 0 47 50 74 70 37z m-482 -143 c-3 -70 -4 -73
-29 -76 -35 -4 -51 19 -47 65 3 33 7 38 31 41 19 2 27 9 27 23 0 10 5 19 10
19 7 0 10 -27 8 -72z m-898 -9 c0 -44 -4 -68 -10 -64 -5 3 -10 35 -10 71 0 36
4 64 10 64 6 0 10 -30 10 -71z m700 56 c0 -8 7 -15 15 -15 8 0 15 -5 15 -10 0
-6 -7 -13 -15 -16 -8 -4 -15 -17 -15 -30 0 -15 6 -24 15 -24 17 0 20 -16 6
-24 -5 -4 -16 -3 -25 0 -12 5 -16 21 -16 70 0 36 4 64 10 64 6 0 10 -7 10 -15z
m-612 -64 c2 -24 -2 -49 -7 -54 -8 -8 -11 1 -11 31 0 35 -3 42 -20 42 -17 0
-20 -7 -20 -41 0 -24 -4 -38 -10 -34 -5 3 -10 29 -10 56 l0 50 38 -3 c36 -3
37 -4 40 -47z m90 37 c-3 -7 -17 -14 -31 -16 -21 -3 -27 -9 -27 -28 0 -20 5
-24 30 -24 31 0 41 -16 15 -26 -8 -4 -26 -3 -40 0 -22 6 -25 12 -25 50 0 52 4
56 48 56 22 0 32 -4 30 -12z m86 -4 c11 -28 6 -71 -9 -84 -8 -7 -25 -10 -40
-6 -22 6 -25 12 -25 50 0 23 3 46 7 49 13 13 61 7 67 -9z m156 -34 c0 -47 -1
-50 -32 -58 -18 -5 -36 -7 -40 -5 -5 2 -8 24 -8 48 0 38 -2 43 -20 38 -15 -4
-20 -14 -20 -39 0 -18 -4 -36 -10 -39 -6 -4 -10 15 -10 49 l0 56 70 0 70 0 0
-50z m85 1 c0 -75 -66 -86 -73 -12 -5 50 3 63 40 59 32 -3 33 -5 33 -47z m75
38 c0 -6 -9 -13 -20 -16 -15 -4 -20 -14 -20 -39 0 -18 -4 -36 -10 -39 -6 -4
-10 15 -10 49 0 56 0 56 30 56 17 0 30 -5 30 -11z m80 -44 c0 -48 -3 -55 -19
-55 -37 0 -51 12 -51 41 0 25 4 29 28 30 l27 2 -27 4 c-42 6 -36 33 7 33 l35
0 0 -55z m150 20 c0 -31 -3 -35 -27 -36 l-28 -2 28 -4 c30 -5 38 -33 8 -33
-42 0 -51 10 -51 61 l0 49 35 0 c33 0 35 -2 35 -35z"/>
<path d="M1050 1170 c0 -16 7 -20 35 -20 28 0 35 4 35 20 0 16 -7 20 -35 20
-28 0 -35 -4 -35 -20z"/>
<path d="M1200 1100 c0 -5 9 -10 20 -10 11 0 20 5 20 10 0 6 -9 10 -20 10 -11
0 -20 -4 -20 -10z"/>
<path d="M1555 1100 c-4 -6 5 -10 19 -10 14 0 26 5 26 10 0 6 -9 10 -19 10
-11 0 -23 -4 -26 -10z"/>
<path d="M1882 918 c5 -34 38 -37 38 -4 0 20 -5 26 -21 26 -15 0 -20 -5 -17
-22z"/>
<path d="M1250 914 c0 -33 33 -30 38 4 3 17 -2 22 -17 22 -16 0 -21 -6 -21
-26z"/>
<path d="M1402 918 c5 -34 38 -37 38 -4 0 20 -5 26 -21 26 -15 0 -20 -5 -17
-22z"/>
<path d="M1492 918 c5 -34 38 -37 38 -4 0 20 -5 26 -21 26 -15 0 -20 -5 -17
-22z"/>
<path d="M1650 900 c0 -5 7 -10 15 -10 8 0 15 5 15 10 0 6 -7 10 -15 10 -8 0
-15 -4 -15 -10z"/>
<path d="M1808 933 c7 -3 16 -2 19 1 4 3 -2 6 -13 5 -11 0 -14 -3 -6 -6z"/>
</g>
</svg>
