<?xml version="1.0" encoding="utf-8"?>
<!-- Generator: Adobe Illustrator 23.0.3, SVG Export Plug-In . SVG Version: 6.00 Build 0)  -->
<svg version="1.1" id="Layer_1" xmlns="http://www.w3.org/2000/svg" xmlns:xlink="http://www.w3.org/1999/xlink" x="0px" y="0px"
	 viewBox="0 0 40 40" style="enable-background:new 0 0 40 40;" xml:space="preserve">
<path d="M33.4,13.3h-5V6.6H4.9C3,6.6,1.5,8.1,1.5,9.9v18.5h3.4c0,2.8,2.3,5,5,5s5-2.3,5-5H25c0,2.8,2.3,5,5,5s5-2.3,5-5h3.4V20
	L33.4,13.3z M9.9,30.9c-1.4,0-2.5-1.1-2.5-2.5s1.1-2.5,2.5-2.5s2.5,1.1,2.5,2.5S11.3,30.9,9.9,30.9z M32.6,15.8l3.3,4.2h-7.5v-4.2
	H32.6z M30.1,30.9c-1.4,0-2.5-1.1-2.5-2.5s1.1-2.5,2.5-2.5s2.5,1.1,2.5,2.5S31.5,30.9,30.1,30.9z"/>
</svg>
