<?xml version="1.0" encoding="utf-8"?>
<!-- Generator: Adobe Illustrator 23.0.3, SVG Export Plug-In . SVG Version: 6.00 Build 0)  -->
<svg version="1.1" id="Layer_1" xmlns="http://www.w3.org/2000/svg" xmlns:xlink="http://www.w3.org/1999/xlink" x="0px" y="0px"
	 viewBox="0 0 40 40" style="enable-background:new 0 0 40 40;" xml:space="preserve">
<g transform="translate(0.000000,1150.000000) scale(0.100000,-0.100000)">
	<path d="M90.6,11461.6c0.6-0.2,4.9-1.8,9.7-3.5c35.6-12.7,46.2-16.5,53.6-19.3l8.5-3.2l2.5,0.2c1.4,0.1,4.6,0.3,7.1,0.5l4.6,0.2
		l4.8,2.3c2.7,1.3,4.9,2.3,4.9,2.3c0.1,0-2.2-1.2-4.9-2.7l-5-2.6l-5.3-0.1c-2.9-0.1-6-0.2-7-0.3c-1.6-0.2-1.9-0.2-8.3,2
		c-4.2,1.4-6.4,2.3-6.2,2.4c0.2,0.2,0,0.2-0.5,0.1c-0.6-0.2-0.6-0.1-0.4,0.2s0.2,0.2-0.2,0.2c-0.9-0.2-2.7,0.4-2.3,0.7
		c0.2,0.2,0.1,0.2-0.4,0.1c-0.5-0.1-0.6-0.1-0.6,0.2c0.1,0.2-0.1,0.2-0.6,0.2c-0.5-0.1-0.6-0.1-0.4,0.1c0.4,0.3-1.5,1-2.1,0.7
		c-0.3-0.2-0.4-0.1-0.2,0.2c0.2,0.2,0.1,0.3-0.5,0.2c-0.5-0.2-0.6-0.1-0.6,0.2c0.2,0.2,0,0.2-0.3,0.1c-0.3-0.1-0.6-0.1-0.6,0.2
		c0,0.2-0.2,0.2-0.4,0.2c-0.2-0.1-0.4,0-0.4,0.2s-0.2,0.2-0.2,0.1c-0.2-0.1-0.4-0.1-0.6,0.1c-0.2,0.2-0.6,0.3-1,0.4
		c-1.9,0.5-22.7,7.4-33.4,11l-3.6,1.3l-8.4-2.8c-8.6-2.8-23.2-7.5-42.7-13.8c-5.9-1.9-10.8-3.6-10.8-3.6c0-0.1,4.3-1.9,9.6-4
		c11.2-4.6,13.9-5.7,25-10.3c4.5-1.9,19.4-8,33-13.6c13.6-5.6,28.6-11.7,33.4-13.7c35.1-14.5,86.3-35.4,86.7-35.4
		c0.2,0,0.7,0.2,1.2,0.6c0.7,0.5,4.3,2,4.7,1.9c0.1,0-0.8-0.6-2-1.3c-1.2-0.7-2-1.2-1.9-1.2c1.1,0.3,123.1,46.6,123,46.7
		c-0.1,0.1-2-0.5-4.3-1.2c-2.2-0.6-4.1-1.2-4.1-1.1c-0.1,0.1,2,0.9,4.7,1.9c2.6,1,5.4,2,6.2,2.4c0.7,0.4,2.6,1,4.1,1.3
		c1.5,0.4,2.8,0.7,2.8,0.8c0,0.1-1.4,0.5-3.1,0.9c-1.7,0.4-9.4,2.3-17.2,4.2c-7.7,1.9-18.1,4.5-23.2,5.7s-15.5,3.7-23.2,5.7
		c-7.7,1.9-18.1,4.5-23.2,5.7s-15.5,3.7-23.2,5.7c-7.7,1.9-18.1,4.5-23.2,5.7c-5,1.2-15.5,3.7-23.2,5.7c-7.7,1.9-18.1,4.5-23.2,5.7
		c-5,1.2-13.6,3.3-19.1,4.6l-10,2.4l-17.2,0.2C91.9,11462.1,89.5,11462.1,90.6,11461.6z M200,11444.4c-0.1-0.1-0.3-0.1-0.5,0
		c-0.2,0.1-0.2,0.2,0.2,0.2C199.9,11444.5,200.1,11444.4,200,11444.4z M201.2,11444.1c-0.1-0.1-0.3-0.1-0.5,0
		c-0.2,0.1-0.2,0.2,0.2,0.2C201.2,11444.3,201.4,11444.2,201.2,11444.1z M352.7,11407.2c-0.1-0.1-4.9-1.5-10.8-3.2
		c-5.9-1.7-13.2-3.9-16.2-4.8c-3-0.9-7.5-2.3-10-3c-2.5-0.7-5.3-1.6-6.2-1.9c-0.9-0.2-2.8-0.8-4-1.2c-5.5-1.6-7.6-2.3-8.8-2.6
		l-1.3-0.4l-3.5,1.6c-1.9,0.9-3.5,1.6-3.4,1.7c0.1,0.1,1.5-0.2,3.2-0.5l3.2-0.6l5.6,1.5c6.6,1.7,13.5,3.5,23.8,6.2
		c4.1,1.1,12.1,3.2,17.6,4.5c5.5,1.5,10.1,2.7,10.2,2.7c0.1,0.1,0.2,0.1,0.5,0.1C352.6,11407.4,352.7,11407.3,352.7,11407.2z
		 M292,11398.1c0-0.1-1.2-1.1-2.8-2.1c-1.5-1.1-2.8-2.1-2.7-2.2c0.1-0.1-3.5-2.3-7.9-4.8c-10.5-6.1-24.4-14.1-29-16.8
		c-2.1-1.2-3.8-2.1-3.8-2c0,0.1,2.3,1.5,5,3.2c10.2,6.2,39.4,23.9,40.2,24.4C292,11398.4,292,11398.4,292,11398.1z"/>
	<path d="M318.7,11397.8c0.2-0.1,0.4-0.1,0.5,0s-0.1,0.2-0.3,0.2C318.6,11398,318.6,11397.9,318.7,11397.8z"/>
	<path d="M38.1,11435.1c0.1-0.5,0.8-5.3,1.6-10.7s3-19.7,4.9-31.7c6.5-42,7.9-51.3,10.2-66.4c1.3-8.3,3.4-21.9,4.6-29.9l2.3-14.7
		l1.1-2.3l1.1-2.3l16.3-13.9c21-17.9,30.1-25.7,75.4-64.3c20.7-17.6,44.9-38.3,53.9-46.1c9.1-7.7,16.5-14.2,16.6-14.5
		s4.2,2.6,12.1,8.5c12.1,8.8,20.4,15,73.7,53.9c22.4,16.3,27.9,20.5,27.9,21c0.5,4,7.8,65.6,8.7,73.6c0.6,5.8,2.9,24.7,4.9,41.8
		c2,17.2,4.8,40.4,6.2,51.5c1.3,11.1,2.3,20.2,2.3,20.2c-0.1,0.1-1.7-0.5-3.7-1.3c-2-0.8-6.6-2.6-10.4-4c-3.7-1.4-12.3-4.7-19.1-7.4
		c-6.8-2.6-16.7-6.4-22-8.5c-5.3-2-15.2-5.8-22-8.5c-6.8-2.6-16.7-6.4-22-8.5c-5.3-2-15.2-5.8-22.1-8.5c-6.8-2.6-12.6-4.8-12.6-4.8
		c-0.2,0-0.2-0.3-0.2-0.7c0-1-0.3-0.9-0.8,0.2c-0.2,0.5-0.8,1.1-1.2,1.3c-0.4,0.2-5.9,2.6-12.3,5.2c-6.3,2.6-26.5,10.9-44.7,18.5
		s-33.6,13.9-34.2,14.2c-0.6,0.2-7.1,3-14.7,6.1c-7.5,3.1-14.8,6.2-16.3,6.7s-8.3,3.4-15.3,6.3c-7,2.9-20.2,8.3-29.4,12.1
		c-9.2,3.8-17.6,7.3-18.5,7.7c-0.9,0.4-1.8,0.8-2,0.9C38,11435.9,37.9,11435.7,38.1,11435.1z"/>
</g>
</svg>
